<svg width="10" height="14" viewBox="0 0 10 14" fill="none" xmlns="http://www.w3.org/2000/svg">
<path d="M5.83751 12.8431L5.83751 2.96562L8.23751 5.12563C8.56251 5.41813 9.08751 5.41813 9.41251 5.12563C9.56856 4.9855 9.65625 4.79526 9.65625 4.59688C9.65625 4.39849 9.56856 4.20825 9.41251 4.06813L5.58751 0.625625C5.26251 0.333125 4.73751 0.333125 4.41251 0.625625L0.587513 4.06813C0.262513 4.36063 0.262513 4.83313 0.587513 5.12563C0.912513 5.41813 1.43751 5.41813 1.76251 5.12563L4.17085 2.96562L4.17085 12.8431C4.17085 13.2556 4.54585 13.5931 5.00418 13.5931C5.46251 13.5931 5.83751 13.2556 5.83751 12.8431Z" fill="#BDBDBD"/>
</svg>
