<svg width="20" height="24" viewBox="0 0 20 24" fill="none" xmlns="http://www.w3.org/2000/svg">
<path d="M0.632162 16.0869C0.804982 16.2316 1.00456 16.3507 1.22279 16.4394C1.29642 17.6887 1.60979 18.9191 2.15029 20.081C2.37846 20.5452 2.4974 21.0435 2.50029 21.5473V22.8749C2.50029 23.1733 2.63857 23.4595 2.88471 23.6705C3.13085 23.8815 3.46469 24 3.81279 24H9.06279C9.41088 24 9.74472 23.8815 9.99086 23.6705C10.237 23.4595 10.3753 23.1733 10.3753 22.8749C10.3759 22.2324 10.6321 21.6094 11.1015 21.1085L13.9584 18.0558C14.0065 18.0108 14.0503 17.9621 14.094 17.917C14.1378 17.872 14.1815 17.8383 14.2209 17.7933C14.2603 17.7483 14.304 17.692 14.3434 17.6395L14.4528 17.5045C14.4922 17.4483 14.5184 17.392 14.5534 17.3395C14.5884 17.287 14.6147 17.242 14.6409 17.1932C14.6672 17.1445 14.6978 17.0732 14.724 17.0132L14.7897 16.867C14.7897 16.8032 14.829 16.7395 14.8465 16.672C14.864 16.6045 14.8772 16.5782 14.8903 16.5294C14.9034 16.4807 14.8903 16.3907 14.9209 16.3232C14.9515 16.2557 14.9209 16.2294 14.9472 16.1807C14.9734 16.1319 14.9472 16.0232 14.9472 15.9444C14.9472 15.8656 14.9472 15.8694 14.9472 15.8281C14.9427 15.71 14.9296 15.5923 14.9078 15.4756L14.8728 15.2956L14.4353 12.8654C14.3864 12.6066 14.2981 12.3545 14.1728 12.1154C14.1658 12.0997 14.157 12.0846 14.1465 12.0704C13.7556 11.3619 13.0568 10.8128 12.1997 10.5403L10.8347 10.124L12.3528 8.84888L13.8753 7.49878C13.9266 7.4562 13.9894 7.42505 14.058 7.40805C14.1267 7.39106 14.1991 7.38873 14.269 7.40127C15.3412 7.59551 16.4593 7.4378 17.4023 6.95933C18.3452 6.48085 19.0444 5.71646 19.3615 4.81733C19.5344 4.33201 19.5895 3.82148 19.5234 3.31721C19.5047 3.17614 19.4397 3.0425 19.336 2.93184C19.2322 2.82118 19.0939 2.73804 18.9372 2.69208C18.7805 2.64613 18.6118 2.63924 18.4507 2.67223C18.2896 2.70522 18.1427 2.77672 18.0272 2.87843L16.8109 3.94351C16.7702 3.97866 16.7219 4.00656 16.6685 4.0256C16.6152 4.04464 16.558 4.05444 16.5003 4.05444C16.4425 4.05444 16.3853 4.04464 16.332 4.0256C16.2787 4.00656 16.2303 3.97866 16.1897 3.94351L14.9647 2.89718C14.9231 2.86125 14.8904 2.81847 14.8686 2.77142C14.8467 2.72437 14.8363 2.67402 14.8378 2.62341C14.8374 2.57316 14.8489 2.52337 14.8714 2.47698C14.894 2.4306 14.9272 2.38857 14.969 2.35339L16.1897 1.28831C16.3063 1.18816 16.3875 1.06177 16.4239 0.923736C16.4603 0.785704 16.4503 0.641665 16.3953 0.508256C16.3395 0.377599 16.2425 0.262806 16.115 0.176709C15.9875 0.0906111 15.8346 0.0366024 15.6734 0.0207195C15.0848 -0.0321122 14.4899 0.0163387 13.9234 0.16323C12.8795 0.438778 11.9935 1.03912 11.4398 1.84622C10.886 2.65332 10.7045 3.6088 10.9309 4.5248C10.9473 4.58676 10.945 4.65126 10.9244 4.71227C10.9037 4.77327 10.8653 4.82878 10.8128 4.87358L8.26654 7.01124C8.0647 6.78341 7.79107 6.6098 7.47791 6.51088C7.16476 6.41197 6.82514 6.39188 6.4991 6.45298C6.17306 6.51408 5.8742 6.65382 5.63777 6.85573C5.40133 7.05763 5.23718 7.31328 5.16466 7.59253C4.90433 7.52933 4.63044 7.51873 4.36452 7.56158C4.0986 7.60442 3.84789 7.69954 3.63209 7.83946C3.41629 7.97938 3.24129 8.16029 3.12081 8.36797C3.00034 8.57565 2.93769 8.80445 2.93779 9.03639C2.93644 9.21445 2.97352 9.39118 3.04716 9.55768H2.94216C2.66868 9.59516 2.40948 9.68776 2.18588 9.82784C1.96228 9.96793 1.78065 10.1515 1.65594 10.3635C1.53123 10.5755 1.46699 10.8098 1.46851 11.0472C1.47002 11.2846 1.53725 11.5183 1.66466 11.7291C1.23083 11.8454 0.86679 12.1018 0.649589 12.444C0.432388 12.7863 0.379068 13.1876 0.500913 13.563C0.155668 13.9213 -0.0220593 14.3767 0.00219124 14.841C0.0264418 15.3052 0.250942 15.7452 0.632162 16.0757V16.0869ZM0.995288 14.2755L1.07404 14.3243C1.11616 14.3587 1.16153 14.39 1.20966 14.418C1.29551 14.4684 1.38627 14.5123 1.48091 14.5493L3.23091 15.1943C3.30873 15.2237 3.38921 15.2475 3.47154 15.2656L3.11716 15.5656C3.06154 15.6111 3.00154 15.6525 2.93779 15.6894L2.87654 15.7231L2.73216 15.7869L2.65341 15.8169L2.48716 15.8581H2.36029H2.29029C2.12171 15.8664 1.95277 15.8486 1.79154 15.8056C1.59864 15.753 1.42317 15.6617 1.27966 15.5394C1.0869 15.3749 0.95852 15.1631 0.912278 14.9333C0.866036 14.7035 0.904216 14.4671 1.02154 14.2568L0.995288 14.2755ZM12.7553 11.6991C13.1797 12.0404 13.4598 12.4928 13.5515 12.9854L14.0459 15.6106C14.0626 15.6987 14.0728 15.7877 14.0765 15.8769C14.0903 16.1864 14.0303 16.495 13.9002 16.7839C13.77 17.0727 13.5725 17.3358 13.3197 17.557L13.289 17.5833L10.419 20.6248C9.82044 21.2621 9.49601 22.0567 9.50029 22.8749C9.50029 22.9744 9.45419 23.0698 9.37215 23.1401C9.2901 23.2104 9.17882 23.2499 9.06279 23.2499H3.81279C3.69676 23.2499 3.58547 23.2104 3.50343 23.1401C3.42138 23.0698 3.37529 22.9744 3.37529 22.8749V21.5473C3.36722 20.9431 3.21848 20.3464 2.93779 19.7922C2.46674 18.7821 2.18045 17.7157 2.08904 16.6307H2.16341C2.25434 16.6288 2.34499 16.6213 2.43466 16.6082C2.47109 16.6101 2.50761 16.6101 2.54404 16.6082C2.6483 16.592 2.75075 16.5681 2.85029 16.5369L2.95966 16.5107C3.06995 16.4712 3.1767 16.4249 3.27904 16.3719L3.34904 16.3419C3.47292 16.273 3.58867 16.1939 3.69466 16.1057L6.14904 14.0393C6.43155 13.9734 6.68835 13.8439 6.89279 13.6642L6.91904 13.6455C6.98327 13.5888 7.04319 13.5287 7.09841 13.4655C7.24112 13.2981 7.33965 13.1062 7.38716 12.9029C7.52384 12.9049 7.66034 12.8936 7.79404 12.8692C8.11145 13.1355 8.49403 13.3379 8.91404 13.4617L9.95529 13.803C10.0715 13.8378 10.1741 13.8999 10.2514 13.982C10.3287 14.0642 10.3777 14.1633 10.3928 14.268C10.4091 14.3966 10.3749 14.5261 10.2957 14.6362C10.2164 14.7462 10.0967 14.8304 9.95529 14.8756C7.61029 15.6256 6.28466 16.9157 6.01779 18.6971C6.00015 18.795 6.02844 18.895 6.09648 18.9751C6.16451 19.0552 6.26677 19.109 6.38091 19.1246H6.43779C6.54461 19.1254 6.64807 19.0927 6.72866 19.0326C6.80925 18.9725 6.8614 18.8892 6.87529 18.7984C7.11154 17.2983 8.21841 16.2407 10.2615 15.5844C10.5843 15.4775 10.8565 15.2818 11.0355 15.0279C11.2145 14.774 11.29 14.4764 11.2503 14.1818C11.2152 13.9472 11.1069 13.7251 10.9367 13.5389C10.7665 13.3527 10.5408 13.2094 10.2834 13.1242L9.22904 12.7492C8.84908 12.6357 8.51301 12.4345 8.25779 12.1679C8.20183 12.1106 8.15205 12.0491 8.10904 11.9841C8.08279 11.9504 8.05654 11.9166 8.03466 11.8829C7.9877 11.813 7.94676 11.7403 7.91216 11.6653C7.89029 11.6166 7.86841 11.5678 7.85091 11.5153C7.83341 11.4628 7.82029 11.4216 7.80716 11.3766C7.79404 11.3316 7.78529 11.2641 7.77654 11.2078C7.77223 11.1591 7.77223 11.1102 7.77654 11.0615C7.77434 11.0466 7.77434 11.0315 7.77654 11.0165C7.76998 10.9479 7.76998 10.8789 7.77654 10.8103C7.77439 10.7853 7.77439 10.7602 7.77654 10.7353C7.77414 10.7153 7.77414 10.6952 7.77654 10.6753C7.79382 10.5709 7.82163 10.468 7.85966 10.3677C7.89662 10.2748 7.97459 10.1981 8.07683 10.1539C8.17908 10.1097 8.29744 10.1017 8.40654 10.1315L11.8715 11.2491C12.1971 11.349 12.4972 11.5018 12.7553 11.6991ZM11.4122 5.39112C11.5656 5.25899 11.6782 5.09625 11.7401 4.91755C11.8019 4.73884 11.811 4.54976 11.7665 4.36729C11.6514 3.91509 11.6634 3.44589 11.8015 2.99844C11.9482 2.50199 12.242 2.04643 12.6543 1.67586C13.0667 1.30529 13.5837 1.03229 14.1553 0.883284C14.6118 0.760861 15.0934 0.722521 15.5684 0.770775L14.3478 1.83585C14.2254 1.94038 14.1283 2.06458 14.0621 2.20134C13.9959 2.33809 13.9618 2.48471 13.9618 2.63279C13.9618 2.78087 13.9959 2.92749 14.0621 3.06424C14.1283 3.201 14.2254 3.3252 14.3478 3.42972L15.5859 4.49855C15.8365 4.70329 16.1694 4.8175 16.5156 4.8175C16.8618 4.8175 17.1947 4.70329 17.4453 4.49855L18.6878 3.41472C18.7392 3.818 18.696 4.22602 18.5609 4.61481C18.3888 5.11196 18.0676 5.5617 17.6292 5.91905C17.1908 6.27641 16.6507 6.52888 16.0628 6.65121C15.5367 6.77161 14.9845 6.7819 14.4528 6.68121C14.2393 6.64241 14.0178 6.64987 13.8085 6.70291C13.5992 6.75595 13.4086 6.8529 13.254 6.98499L10.1478 9.61018V9.58768C10.1094 9.48925 10.058 9.39489 9.99466 9.30641L8.75654 7.65254L11.4122 5.39112ZM6.40716 7.26626C6.50425 7.21355 6.61251 7.17775 6.72574 7.16091C6.83897 7.14407 6.95497 7.14652 7.0671 7.16811C7.17923 7.1897 7.2853 7.23001 7.37925 7.28675C7.4732 7.34349 7.5532 7.41553 7.61466 7.49878L7.82904 7.78755L9.14154 9.56518L8.70404 9.42642C8.54117 9.37773 8.36855 9.35763 8.19643 9.36729C8.02432 9.37695 7.85623 9.41619 7.70216 9.48267C7.65981 9.50171 7.6189 9.523 7.57966 9.54643L6.02654 8.06507C5.98826 7.91564 6.00421 7.75974 6.07225 7.6183C6.14028 7.47686 6.25714 7.35664 6.40716 7.27376V7.26626ZM4.07091 8.5001C4.15233 8.42923 4.24938 8.37295 4.35641 8.33454C4.46344 8.29612 4.57832 8.27634 4.69435 8.27634C4.81038 8.27634 4.92526 8.29612 5.03229 8.33454C5.13932 8.37295 5.23637 8.42923 5.31779 8.5001L7.03279 10.139C7.01091 10.199 6.99341 10.259 6.97154 10.3227C6.80023 10.9026 6.86506 11.5152 7.15529 12.0591L4.77091 10.1502L4.07091 9.55018C3.90794 9.40965 3.81647 9.21954 3.81647 9.02139C3.81647 8.82323 3.90794 8.63313 4.07091 8.4926V8.5001ZM2.50029 10.6115C2.63617 10.4505 2.84102 10.3423 3.06987 10.3107C3.29873 10.279 3.53288 10.3265 3.72091 10.4427L4.15841 10.7278L6.54279 12.6292C6.52941 12.7644 6.47347 12.894 6.38091 13.0042C6.3523 13.0379 6.32007 13.0693 6.28466 13.0979C6.16155 13.1921 6.00988 13.2545 5.84716 13.278C5.68944 13.3054 5.52595 13.295 5.37466 13.248L3.00779 11.8228L2.67966 11.6166C2.50798 11.499 2.39422 11.3303 2.36098 11.1441C2.32775 10.9579 2.37748 10.7677 2.50029 10.6115ZM1.36716 12.8617C1.43547 12.7275 1.54809 12.6134 1.69113 12.5334C1.83417 12.4535 2.00139 12.4111 2.17216 12.4116C2.2924 12.4108 2.41154 12.4312 2.52216 12.4716H2.55716L4.77091 13.803C4.77149 13.902 4.74919 14.0002 4.70529 14.0918C4.66709 14.1852 4.60703 14.271 4.52879 14.3439C4.45055 14.4168 4.35578 14.4752 4.25029 14.5155C4.03598 14.5916 3.79522 14.5916 3.58091 14.5155L1.83091 13.8667C1.77994 13.8475 1.73153 13.8236 1.68654 13.7955C1.57563 13.7197 1.48593 13.6236 1.42404 13.5142L1.39779 13.473C1.34613 13.3796 1.31753 13.2782 1.31376 13.1749C1.31 13.0716 1.33116 12.9688 1.37591 12.8729L1.36716 12.8617Z" fill="white"/>
</svg>
