<svg width="25" height="25" viewBox="0 0 25 25" fill="none" xmlns="http://www.w3.org/2000/svg">
<g clip-path="url(#clip0_6676_44852)">
<path d="M12.5 25C5.59644 25 -2.65579e-07 19.4036 -5.93187e-07 12.5C-9.20795e-07 5.59644 5.59644 -6.27211e-08 12.5 -1.40091e-07C19.4036 -2.17462e-07 25 5.59644 25 12.5C25 19.4036 19.4036 25 12.5 25Z" fill="#E33737"/>
<g clip-path="url(#clip1_6676_44852)">
<path d="M9.37499 16.1458C9.37499 16.7187 9.84374 17.1875 10.4167 17.1875L14.5833 17.1875C15.1562 17.1875 15.625 16.7187 15.625 16.1458L15.625 9.89583L9.37499 9.89583L9.37499 16.1458ZM16.1458 8.33333L14.3229 8.33333L13.8021 7.8125L11.1979 7.8125L10.6771 8.33333L8.85416 8.33333L8.85416 9.375L16.1458 9.375L16.1458 8.33333Z" fill="white"/>
</g>
</g>
<defs>
<clipPath id="clip0_6676_44852">
<path d="M4 25C1.79086 25 -8.49852e-08 23.2091 -1.8982e-07 21L-9.96554e-07 4C-1.10139e-06 1.79086 1.79086 -2.00707e-08 4 -4.48292e-08L21 -2.35354e-07C23.2091 -2.60112e-07 25 1.79086 25 4L25 21C25 23.2091 23.2091 25 21 25L4 25Z" fill="white"/>
</clipPath>
<clipPath id="clip1_6676_44852">
<rect width="12.5" height="12.5" fill="white" transform="translate(6.25 6.25)"/>
</clipPath>
</defs>
</svg>
