<svg width="24" height="24" viewBox="0 0 24 24" fill="none" xmlns="http://www.w3.org/2000/svg">
<g clip-path="url(#clip0_6676_42826)">
<path fill-rule="evenodd" clip-rule="evenodd" d="M21 1.5H3C2.60218 1.5 2.22064 1.65804 1.93934 1.93934C1.65804 2.22064 1.5 2.60218 1.5 3V21C1.5 21.3978 1.65804 21.7794 1.93934 22.0607C2.22064 22.342 2.60218 22.5 3 22.5H21C21.3978 22.5 21.7794 22.342 22.0607 22.0607C22.342 21.7794 22.5 21.3978 22.5 21V3C22.5 2.60218 22.342 2.22064 22.0607 1.93934C21.7794 1.65804 21.3978 1.5 21 1.5ZM3 0C2.20435 0 1.44129 0.316071 0.87868 0.87868C0.316071 1.44129 0 2.20435 0 3L0 21C0 21.7956 0.316071 22.5587 0.87868 23.1213C1.44129 23.6839 2.20435 24 3 24H21C21.7956 24 22.5587 23.6839 23.1213 23.1213C23.6839 22.5587 24 21.7956 24 21V3C24 2.20435 23.6839 1.44129 23.1213 0.87868C22.5587 0.316071 21.7956 0 21 0L3 0Z" fill="#840B55"/>
<g clip-path="url(#clip1_6676_42826)">
<path d="M19.7993 11.2995C20.0893 10.9605 20.0613 10.4411 19.7368 10.1395L12.5862 3.49163C12.2616 3.19005 11.7412 3.19637 11.4235 3.50587L4.2486 10.4939C3.93087 10.8034 3.91527 11.3222 4.21407 11.6522L4.39396 11.8513C4.69239 12.1813 5.17478 12.2206 5.47071 11.9389L6.00693 11.4287V18.8983C6.00693 19.3566 6.35642 19.7276 6.78744 19.7276H9.58424C10.0153 19.7276 10.3647 19.3566 10.3647 18.8983V13.6726H13.9321V18.8983C13.9259 19.3562 14.2343 19.7272 14.6653 19.7272H17.6292C18.0602 19.7272 18.4097 19.3562 18.4097 18.8979V11.5339C18.4097 11.5339 18.5578 11.6717 18.7405 11.8424C18.9229 12.0127 19.306 11.8761 19.596 11.5369L19.7993 11.2995Z" fill="#840B55"/>
</g>
</g>
<defs>
<clipPath id="clip0_6676_42826">
<rect width="24" height="24" fill="white"/>
</clipPath>
<clipPath id="clip1_6676_42826">
<rect width="16" height="17" fill="white" transform="translate(4 3)"/>
</clipPath>
</defs>
</svg>
