<svg width="24" height="24" viewBox="0 0 24 24" fill="none" xmlns="http://www.w3.org/2000/svg">
<g clip-path="url(#clip0_6676_43827)">
<path fill-rule="evenodd" clip-rule="evenodd" d="M21 1.5H3C2.60218 1.5 2.22064 1.65804 1.93934 1.93934C1.65804 2.22064 1.5 2.60218 1.5 3V21C1.5 21.3978 1.65804 21.7794 1.93934 22.0607C2.22064 22.342 2.60218 22.5 3 22.5H21C21.3978 22.5 21.7794 22.342 22.0607 22.0607C22.342 21.7794 22.5 21.3978 22.5 21V3C22.5 2.60218 22.342 2.22064 22.0607 1.93934C21.7794 1.65804 21.3978 1.5 21 1.5ZM3 0C2.20435 0 1.44129 0.316071 0.87868 0.87868C0.316071 1.44129 0 2.20435 0 3L0 21C0 21.7956 0.316071 22.5587 0.87868 23.1213C1.44129 23.6839 2.20435 24 3 24H21C21.7956 24 22.5587 23.6839 23.1213 23.1213C23.6839 22.5587 24 21.7956 24 21V3C24 2.20435 23.6839 1.44129 23.1213 0.87868C22.5587 0.316071 21.7956 0 21 0L3 0Z" fill="#840B55"/>
<path d="M7.726 5.491C7.99 5.26367 8.27233 5.051 8.573 4.853C8.881 4.655 9.211 4.48267 9.563 4.336C9.92233 4.18933 10.3073 4.07567 10.718 3.995C11.136 3.907 11.5833 3.863 12.06 3.863C12.72 3.863 13.3177 3.95467 13.853 4.138C14.3883 4.314 14.8467 4.57067 15.228 4.908C15.6093 5.238 15.9027 5.63767 16.108 6.107C16.3207 6.57633 16.427 7.10067 16.427 7.68C16.427 8.23733 16.3463 8.72133 16.185 9.132C16.031 9.53533 15.833 9.88733 15.591 10.188C15.3563 10.4887 15.096 10.749 14.81 10.969C14.524 11.189 14.2527 11.3943 13.996 11.585C13.7393 11.7757 13.5157 11.9663 13.325 12.157C13.1417 12.3403 13.028 12.5457 12.984 12.773L12.709 14.346H10.63L10.421 12.564C10.3697 12.212 10.4137 11.9077 10.553 11.651C10.6923 11.387 10.8793 11.1487 11.114 10.936C11.3487 10.716 11.609 10.507 11.895 10.309C12.1883 10.1037 12.4597 9.88733 12.709 9.66C12.9657 9.42533 13.1783 9.165 13.347 8.879C13.523 8.58567 13.611 8.241 13.611 7.845C13.611 7.361 13.4423 6.976 13.105 6.69C12.775 6.404 12.335 6.261 11.785 6.261C11.3817 6.261 11.0407 6.305 10.762 6.393C10.4907 6.481 10.256 6.58 10.058 6.69C9.86 6.79267 9.69133 6.888 9.552 6.976C9.41267 7.064 9.28067 7.108 9.156 7.108C8.87733 7.108 8.66833 6.987 8.529 6.745L7.726 5.491ZM9.783 18.405C9.783 18.163 9.827 17.9357 9.915 17.723C10.0103 17.503 10.1387 17.316 10.3 17.162C10.4613 17.0007 10.6483 16.876 10.861 16.788C11.081 16.6927 11.3193 16.645 11.576 16.645C11.8253 16.645 12.06 16.6927 12.28 16.788C12.5 16.876 12.6907 17.0007 12.852 17.162C13.0133 17.316 13.138 17.503 13.226 17.723C13.3213 17.9357 13.369 18.163 13.369 18.405C13.369 18.6543 13.3213 18.8853 13.226 19.098C13.138 19.3107 13.0133 19.4977 12.852 19.659C12.6907 19.813 12.5 19.934 12.28 20.022C12.06 20.11 11.8253 20.154 11.576 20.154C11.3193 20.154 11.081 20.11 10.861 20.022C10.6483 19.934 10.4613 19.813 10.3 19.659C10.1387 19.4977 10.0103 19.3107 9.915 19.098C9.827 18.8853 9.783 18.6543 9.783 18.405Z" fill="#840B55"/>
</g>
<defs>
<clipPath id="clip0_6676_43827">
<rect width="24" height="24" fill="white"/>
</clipPath>
</defs>
</svg>
